<svg width="111" height="108" viewBox="0 0 111 108" fill="none" xmlns="http://www.w3.org/2000/svg">
<path fill-rule="evenodd" clip-rule="evenodd" d="M32.9423 96.862C33.1313 96.254 33.7773 95.913 34.3863 96.101C37.4033 97.035 31.9613 100.031 32.9423 96.862Z" stroke="#231F20"/>
<path fill-rule="evenodd" clip-rule="evenodd" d="M26.3766 103.393C26.5646 102.784 27.2116 102.443 27.8206 102.632C30.8376 103.566 25.3946 106.562 26.3766 103.393Z" stroke="#231F20"/>
<path fill-rule="evenodd" clip-rule="evenodd" d="M13.5671 105.624C13.7551 105.015 14.4021 104.675 15.0111 104.863C18.0281 105.797 12.5851 108.793 13.5671 105.624Z" stroke="#231F20"/>
<path fill-rule="evenodd" clip-rule="evenodd" d="M4.51176 37.5968C8.96976 35.9078 13.4328 34.4368 17.9078 32.9658L31.3358 28.6418C34.6018 27.5918 37.8488 26.4938 41.1208 25.4828C52.6578 21.8938 64.1878 18.3028 75.6218 14.4308C80.6938 12.7108 85.7628 10.8888 90.7198 8.9848C93.9038 7.7618 97.0648 6.4668 100.201 5.1258C103.327 3.7708 106.427 2.3378 109.345 0.681803C111.081 -0.431197 111.042 -0.127197 109.737 1.1988C108.418 2.5038 105.591 4.4318 101.978 6.0688C95.5807 8.9838 89.0458 11.4748 82.4738 13.8968C75.8948 16.2948 69.2598 18.5598 62.5628 20.7308C54.5528 23.3238 46.2748 26.1958 38.1028 28.8998C29.1108 31.8428 20.0808 34.6998 11.1638 37.8048L7.06976 39.2778L5.04676 40.0538L4.11576 40.4358C3.94776 40.5018 3.78676 40.5668 3.62376 40.6428C3.46176 40.7188 3.29376 40.7858 3.13376 40.8698C3.05276 41.0388 3.25076 41.1878 3.34576 41.3148C3.46876 41.4458 3.60076 41.5668 3.73776 41.6848L3.95476 41.8678L4.35376 42.1828C5.47476 43.0458 6.66676 43.8498 7.88076 44.6148C9.72076 45.7848 11.6308 46.8158 13.5748 47.8398L19.3928 51.0298C23.2778 53.1378 27.1558 55.2418 31.0098 57.3318L31.5848 57.6398C31.8498 57.7818 32.1158 57.9218 32.3708 58.0798C32.4248 58.1258 32.5228 58.1388 32.5408 58.2128L32.6018 58.4308L32.7228 58.8668C32.7638 59.0128 32.7938 59.1598 32.8218 59.3068L32.8878 59.6428L33.3498 62.1558C33.6478 63.8188 33.9438 65.4758 34.2408 67.1318C34.8378 70.4338 35.4328 73.7278 36.0308 77.0348C36.3018 78.4868 36.5658 79.9078 36.8388 81.3718C37.7648 86.8118 37.9728 88.5218 37.8608 89.7798C37.8368 90.0668 37.8448 90.4398 37.7968 90.6258C37.7148 90.9408 37.4358 90.5888 36.9658 89.6418C36.5408 88.6998 35.9908 87.1798 35.4468 85.2078C34.6238 82.2828 33.9638 79.2898 33.3508 76.2628C32.7288 73.2358 32.1438 70.1718 31.6218 67.0808C31.3558 65.5398 31.0898 63.9928 30.8218 62.4418L30.4108 60.1478L30.3488 59.8428L30.3448 59.8348C30.3078 59.8178 30.4558 59.8998 29.9668 59.6378C27.1868 58.1398 24.3958 56.6378 21.6028 55.1328C17.4348 52.8678 13.2568 50.5988 9.07676 48.3268C6.96576 47.1118 4.91776 45.8188 2.93276 44.3098L2.56076 44.0198L2.04476 43.5978C1.61176 43.2418 1.18076 42.8408 0.818756 42.4428C0.455756 42.0398 0.206756 41.6238 0.0867559 41.2278C0.0157559 41.0278 0.00675586 40.8348 -0.000244141 40.6318C0.0167559 40.4368 0.00475585 40.1548 0.176756 40.0368L1.18576 39.1738L1.69076 38.7428C1.88876 38.6068 2.19076 38.4998 2.43576 38.3768L3.63376 37.8818L4.47776 37.5428L4.51176 37.5968Z" fill="#221F1F"/>
<path fill-rule="evenodd" clip-rule="evenodd" d="M60.5455 74.1521C62.0795 74.9871 63.5895 75.8541 65.0885 76.7311C65.6385 77.0441 66.2175 77.3041 66.7425 77.6611C68.5995 78.8941 70.4595 80.1301 72.3155 81.3621C73.1395 81.9021 73.9885 82.4091 74.8305 82.9021C75.9015 83.5521 77.0455 84.0911 77.9815 84.9571C78.2625 85.2461 78.1045 85.4141 77.6585 85.5211C77.1955 85.6561 76.4785 85.6671 75.8405 85.3321C73.5755 84.1441 71.3345 82.9521 69.1825 81.5521C67.8965 80.7101 66.4235 80.0791 65.0335 79.3591C63.5205 78.5411 62.0165 77.7001 60.4865 76.9111C59.5435 76.4301 58.6055 75.9341 57.6435 75.4931C56.1955 74.8081 54.7435 74.1031 53.2455 73.5721C52.0895 73.1311 50.8745 72.9451 49.7165 72.5881C49.4595 72.5121 49.1965 72.4811 48.9485 72.3761C48.0255 71.9921 47.7965 71.6441 47.7175 71.1331C47.7005 71.0131 47.6665 70.8921 47.6675 70.7861C47.6655 70.4331 48.1495 70.2401 48.9585 70.1781C51.3395 70.0891 53.5755 70.9741 55.7815 71.8411C57.4195 72.5011 59.0035 73.2931 60.5705 74.0941L60.5455 74.1521Z" fill="#221F1F"/>
<path fill-rule="evenodd" clip-rule="evenodd" d="M58.2006 38.7474L69.3386 31.2414L73.3686 28.4574L87.7296 18.8694C89.8506 17.4474 91.9566 15.9774 94.0296 14.5214C96.6936 12.6504 99.3256 10.7104 102.143 9.06437C102.364 8.93837 102.533 8.86237 102.65 8.83037L102.692 8.82037C102.732 8.88037 102.576 8.59037 103.053 9.31237L102.994 9.31037C102.959 9.30537 102.935 9.29037 102.923 9.26537C102.91 9.24137 102.909 9.20637 102.918 9.16437L102.927 9.13037L102.929 9.12137V9.11937L102.921 9.12337C102.961 9.19437 102.779 9.04637 102.841 9.01937L102.851 9.01037C102.859 9.00537 102.855 9.01137 102.855 9.01137L102.849 9.03037L102.814 9.11537C102.756 9.23837 102.659 9.39537 102.529 9.58337C102.02 10.3554 100.935 11.5654 99.4216 12.6754C94.0406 16.5824 88.5666 20.3464 82.9606 24.0234C79.5986 26.2094 76.2156 28.6514 72.8346 30.9714L61.6616 38.5984L54.7916 43.2994C51.3316 45.6844 47.8416 48.0594 44.4446 50.4794C41.8036 52.3594 39.2876 54.3074 36.7116 56.2134C36.1466 56.6364 35.5946 57.0514 35.0256 57.4774C32.8886 59.0224 32.1346 59.4064 31.3826 59.3294C31.2116 59.3124 31.0066 59.3194 30.8796 59.2704C30.4486 59.1064 31.1346 58.2154 32.6396 56.9944C37.0976 53.3644 42.0256 49.8624 47.0056 46.3934C50.7176 43.8394 54.4476 41.2734 58.1696 38.7124L58.2006 38.7474Z" fill="#221F1F"/>
<path fill-rule="evenodd" clip-rule="evenodd" d="M66.1032 43.3889L74.8482 36.0159L77.9902 33.2749L89.2142 23.7819C90.8682 22.3699 92.4732 20.8889 94.0632 19.4319C96.0932 17.5479 98.0642 15.5879 100.27 13.8959C100.975 13.3859 101.069 13.6499 100.779 14.4069C100.509 15.1849 99.8122 16.4139 98.6792 17.5499C94.6232 21.5239 90.3802 25.2809 85.9822 28.9309C83.3402 31.0989 80.7292 33.5129 78.0892 35.8009L69.3412 43.3019L63.9592 47.9179C61.2542 50.2599 58.5202 52.5939 55.8882 54.9769C53.8432 56.8319 51.9392 58.7599 49.9812 60.6529C49.5572 61.0759 49.1402 61.4899 48.7122 61.9149C47.0852 63.4529 46.5012 63.8529 45.7552 63.7819C45.5872 63.7669 45.3942 63.7769 45.2582 63.7309C44.8002 63.5749 45.2132 62.6829 46.3212 61.4349C49.6172 57.7709 53.4472 54.3169 57.3292 50.9009C60.2122 48.3639 63.1502 45.8649 66.0652 43.3539L66.1032 43.3889Z" fill="#221F1F"/>
<path fill-rule="evenodd" clip-rule="evenodd" d="M88.6657 60.004C87.5867 63.68 86.5437 67.368 85.6237 71.078C85.1577 72.933 84.7127 74.79 84.3367 76.652L84.0387 78.049L83.8037 79.442L83.5697 80.836C83.5327 80.984 83.4717 81.497 83.4447 81.908L83.3347 83.176L83.2767 83.286L82.7337 84.334L82.6657 84.465L82.6327 84.531L82.6277 84.539C82.5207 84.318 82.8657 85.037 82.3877 84.044H82.3867L82.3827 84.046L82.3697 84.049L82.3467 84.055L82.1637 84.097C82.0347 84.129 81.8947 84.167 81.7247 84.223C81.4147 84.537 80.8327 84.052 80.3327 83.72L78.9947 82.819L75.4877 80.486C71.3797 77.729 67.2017 75.072 62.9097 72.626C58.6167 70.198 54.2107 67.917 49.5927 66.298C49.0797 66.124 48.5647 65.955 48.0457 65.805L47.2667 65.587L46.7987 65.468C46.6817 65.457 46.5087 65.367 46.4347 65.427L46.3477 65.818L46.0237 67.196C45.5067 69.351 44.9637 71.491 44.4027 73.613C43.6837 76.339 42.9457 79.067 42.1087 81.773C41.2527 84.473 40.3437 87.157 39.0227 89.734C38.0797 91.346 37.8777 90.826 38.1707 89.358C38.4287 87.864 38.9247 85.204 39.8437 82.129C41.5057 76.689 42.9857 71.144 44.3137 65.598L44.7997 63.582L44.9227 63.08C44.9147 62.952 45.0327 63.022 45.1117 63.03L45.3667 63.084L46.3837 63.301L47.3967 63.529L48.0367 63.693L49.1127 64.007C50.5367 64.446 51.9187 64.966 53.2787 65.528C55.9947 66.658 58.6137 67.964 61.1757 69.366C67.2937 72.733 73.5207 76.432 79.4117 80.418L80.5037 81.162L80.8797 81.427C81.0017 81.505 81.1447 81.634 81.2577 81.672L81.3047 81.218L81.3457 80.832L81.5287 79.732C81.6577 78.98 81.7707 78.221 81.9137 77.474C82.2357 75.994 82.5217 74.502 82.8737 73.033L83.9547 68.632L85.1217 64.26C86.4267 59.632 87.7947 55.023 89.2707 50.454C91.4987 43.529 93.9507 36.643 96.5597 29.909C98.6097 24.684 100.566 19.529 103.009 14.516C103.531 13.407 104.043 12.32 104.664 11.243C105.23 10.242 105.699 9.41303 106.093 8.71603C106.489 8.02403 106.904 7.51203 107.216 7.08003C107.865 6.22603 108.311 5.78503 108.75 5.48903C108.95 5.35503 109.186 5.16003 109.333 5.10503C109.837 4.92703 109.043 6.62503 107.471 9.51203C106.933 10.615 106.391 11.724 105.847 12.84C105.29 13.947 104.838 15.124 104.317 16.266C103.246 18.537 102.326 20.916 101.323 23.27C99.4247 28.032 97.5687 32.894 95.8637 37.826C94.5707 41.478 93.3557 45.169 92.1647 48.868C90.9577 52.564 89.8107 56.281 88.7227 60.01L88.6657 60.004Z" fill="#221F1F"/>
<path fill-rule="evenodd" clip-rule="evenodd" d="M47.9943 81.6868C47.2743 82.4768 46.5523 83.2638 45.8103 84.0348C45.5423 84.3168 45.3003 84.6238 45.0243 84.8988C44.0473 85.8688 43.0383 86.8078 42.0263 87.7408C41.5833 88.1668 41.1463 88.5898 40.7083 89.0128C40.1423 89.5478 39.5723 90.1008 38.8663 90.4788C38.4423 90.7238 38.3533 89.5938 38.9163 88.9628C39.9423 87.8228 41.0373 86.7428 42.2203 85.6968C42.9303 85.0738 43.5193 84.2848 44.1563 83.5628L46.2793 81.1878C46.7093 80.6948 47.1463 80.2068 47.5633 79.7028C48.1993 78.9418 48.8463 78.1828 49.4303 77.3918C49.8883 76.7778 50.2353 76.1018 50.6643 75.4808C50.7573 75.3428 50.8363 75.1988 50.9373 75.0648C51.3073 74.5668 51.5093 74.4708 51.8903 74.5788C51.9773 74.6038 52.0693 74.6198 52.1483 74.6548C52.4123 74.7698 52.4593 75.1168 52.2813 75.5568C51.7743 76.8768 50.9693 78.0778 50.0903 79.2258C49.4303 80.0728 48.7253 80.8918 48.0273 81.7108L47.9943 81.6868Z" fill="#221F1F"/>
<path fill-rule="evenodd" clip-rule="evenodd" d="M11.9155 51.9883C13.1845 52.8123 14.5055 53.5813 15.8395 54.3273C16.3305 54.5943 16.8555 54.7873 17.3445 55.0593C19.0745 56.0073 20.8275 56.9313 22.6075 57.8103C23.4015 58.2093 24.2075 58.5103 25.0595 58.8443C25.6065 59.0633 26.1735 59.3493 26.6985 59.7553C27.2215 60.1623 27.6525 60.7183 27.8855 61.3213C28.0265 61.7073 27.6265 61.8393 27.1035 61.8463C26.5735 61.8383 25.9185 61.8523 25.5085 61.6763C25.1355 61.4933 24.7035 61.3733 24.2125 61.2113L22.6615 60.5783C21.5895 60.1343 20.5475 59.6003 19.5435 58.9723C18.3415 58.2273 16.9615 57.7483 15.6855 57.0903C14.2775 56.3783 12.9015 55.5933 11.5345 54.8013C10.6995 54.2963 9.86748 53.7913 9.04548 53.2643C7.79048 52.4843 6.58948 51.6013 5.38948 50.7393C4.93348 50.3843 4.43848 50.0943 3.97248 49.7523C3.52448 49.3823 3.03948 49.0703 2.62948 48.6353C2.44348 48.4523 2.24648 48.2863 2.06948 48.0923C1.43948 47.3293 1.40448 46.9363 1.72848 46.4783C1.80448 46.3713 1.87148 46.2563 1.95848 46.1673C2.25348 45.8743 2.77048 45.9623 3.26948 46.3253C4.03048 46.8653 4.85848 47.3493 5.68348 47.8513C6.48448 48.3893 7.29648 48.9463 8.14048 49.4843C9.37348 50.3103 10.6265 51.1643 11.9455 51.9293L11.9155 51.9883Z" fill="#221F1F"/>
<path fill-rule="evenodd" clip-rule="evenodd" d="M39.6377 52.9024C43.5157 50.0644 47.4587 47.3704 51.3967 44.6714L55.6797 41.6844L70.9767 31.4684C73.2307 29.9474 75.4607 28.3664 77.6467 26.7874C80.4557 24.7584 83.2067 22.6334 86.1607 20.8124C87.0957 20.2604 87.1497 20.5694 86.6477 21.4254C86.1647 22.3064 85.0777 23.6794 83.4927 24.9064C77.8487 29.2204 72.0187 33.2454 66.0407 37.1564C62.4547 39.4784 58.8587 42.0904 55.2697 44.5744C51.3217 47.3024 47.3677 50.0244 43.4837 52.8284C41.1047 54.5604 38.7097 56.3014 36.5167 58.1964C36.1087 58.5574 35.7067 58.9264 35.3487 59.3024C34.9707 59.7414 34.7417 59.9054 34.7927 60.2444C34.7977 61.2754 34.9137 62.4204 35.0157 63.5124C35.2427 65.7234 35.5457 67.9364 35.8707 70.1304C36.3787 73.5454 37.0547 76.8674 37.5727 80.2604C37.6897 81.0064 37.8177 81.7364 37.9117 82.4964C38.2497 85.3124 38.1147 86.2744 37.5247 86.9004C37.3907 87.0424 37.2597 87.2254 37.1237 87.3054C36.6507 87.5574 36.2867 86.4714 35.9537 84.4774C34.9107 78.5284 33.7797 72.1944 32.9827 65.7354C32.8387 64.5304 32.6997 63.3244 32.6067 62.0844L32.5417 61.1494L32.5127 60.0704C32.5267 59.4954 32.7307 58.9114 33.0987 58.4404C33.3867 58.0544 33.5987 57.8454 33.8457 57.5834C35.7337 55.7484 37.6557 54.3444 39.5987 52.8614L39.6377 52.9024Z" fill="#221F1F"/>
</svg>
