<svg width="281" height="150" viewBox="0 0 281 150" fill="none" xmlns="http://www.w3.org/2000/svg">
<path d="M68.3176 92.1857L143.562 79.199C144.546 79.0293 145.144 80.2465 144.408 80.9212L109.783 112.693C109.709 112.76 109.631 112.817 109.537 112.852C106.41 114.037 94.8023 109.408 88.4005 106.506C87.8357 106.25 87.1767 106.559 87.0077 107.156C85.5916 112.155 83.9187 116.758 83.003 119.087C82.8298 119.527 82.3443 119.75 82.0687 119.366C80.4897 117.163 80.2582 107.956 80.368 102.475C80.3783 101.963 80.0029 101.529 79.5019 101.421C74.8442 100.41 68.6588 96.3139 66.0059 94.2727" stroke="black" stroke-width="2" stroke-linecap="round"/>
<path d="M88.1416 105.336C96.1139 101.535 116.282 92.016 133.177 84.3452" stroke="black" stroke-width="2" stroke-linecap="round"/>
<path d="M82.0352 119.839L96.9196 110.297" stroke="black" stroke-width="2" stroke-linecap="round"/>
<path d="M85.4697 98.0844L106.079 90.833" stroke="black" stroke-width="2" stroke-linecap="round"/>
<path d="M73.9192 132.661C66.3497 136.751 45.6853 141.122 23.584 125.884" stroke="black" stroke-width="2" stroke-linecap="round"/>
<path d="M62.709 123.283C50.0905 121.399 20.1078 110.132 1.12508 80.1357" stroke="black" stroke-width="2" stroke-linecap="round"/>
<path d="M224.22 8.24136C200.286 4.35973 176.38 26.4262 171.23 58.1767C166.081 89.9272 181.788 118.418 205.722 122.3C229.656 126.182 253.563 104.115 258.712 72.3646C263.861 40.6141 248.154 12.123 224.22 8.24136Z" stroke="black" stroke-width="2"/>
<path d="M220.397 20.7663C211.64 19.3461 202.856 22.8309 195.723 29.7734C188.591 36.7158 183.166 47.073 181.198 59.2094C179.229 71.3458 181.103 82.8867 185.675 91.7275C190.248 100.568 197.48 106.651 206.237 108.071C214.994 109.491 223.777 106.006 230.91 99.0637C238.042 92.1213 243.468 81.7642 245.436 69.6277C247.405 57.4913 245.53 45.9503 240.957 37.1095C236.384 28.2688 229.153 22.1865 220.397 20.7663Z" stroke="black" stroke-width="2"/>
<ellipse cx="16.9076" cy="22.7973" rx="16.9076" ry="22.7973" transform="matrix(-0.987103 -0.160089 -0.160089 0.987103 230.562 45.1074)" fill="black"/>
<path d="M249.072 116.404C218.54 145.792 184.572 128.617 177.321 110.107C180.55 128.571 202.429 139.046 220.639 139.494C240.675 139.494 265.674 122.892 272.543 107.817C297.824 52.341 259.313 13.2944 240.103 7.82422C276.169 24.8077 281.886 84.82 249.072 116.404Z" fill="black"/>
</svg>
