<svg width="127" height="93" viewBox="0 0 127 93" fill="none" xmlns="http://www.w3.org/2000/svg">
<path fill-rule="evenodd" clip-rule="evenodd" d="M71.52 29.4932L66.5 30.3422L64.677 30.6992C62.526 31.0822 60.372 31.4662 58.223 31.8482C57.27 32.0392 56.316 32.2302 55.371 32.4202C54.152 32.6682 52.967 32.9822 51.662 33.0192C51.246 33.0232 51.325 32.7842 51.627 32.5232C51.916 32.2782 52.453 31.9462 53.142 31.8162C55.595 31.3092 58.068 30.7992 60.588 30.4262C62.095 30.1982 63.636 29.8292 65.166 29.5372L70.225 28.6162L73.345 28.0822C74.924 27.8312 76.51 27.5792 78.078 27.3302C79.299 27.1442 80.484 26.8842 81.708 26.7272L82.511 26.6102C83.531 26.5322 83.865 26.6072 84.083 26.9092C84.133 26.9782 84.198 27.0472 84.226 27.1182C84.32 27.3572 83.917 27.5742 83.208 27.6712C81.01 28.0102 78.818 28.3472 76.585 28.6922C74.903 28.9672 73.213 29.2432 71.527 29.5192L71.52 29.4932Z" fill="#231F20"/>
<path fill-rule="evenodd" clip-rule="evenodd" d="M27.9299 47.9678C29.8679 48.9588 31.8199 49.9288 33.7839 50.8748L35.9509 51.8728C38.4809 53.0888 41.0129 54.3058 43.5409 55.5208C44.6649 56.0608 45.8069 56.5768 46.9329 57.0908C48.3789 57.7578 49.8599 58.3659 51.1839 59.3358C51.5989 59.6318 51.4229 59.7558 50.9489 59.7348C50.7099 59.7258 50.4039 59.6788 50.0509 59.6008C49.6889 59.5238 49.2699 59.4338 48.8669 59.2338C45.9499 57.9008 42.9379 56.6888 40.0259 55.1998C38.2769 54.3238 36.3869 53.5639 34.5659 52.7348C32.5639 51.8198 30.5729 50.8798 28.5869 49.9268L24.9319 48.1408C23.0889 47.2348 21.2639 46.2698 19.4449 45.3448C18.0369 44.6118 16.6129 43.9688 15.2199 43.2228C14.9119 43.0588 14.5959 42.9288 14.3049 42.7278C13.2039 42.0228 12.9319 41.6798 12.9159 41.2068C12.9119 41.0998 12.8909 40.9838 12.9079 40.8928C12.9609 40.5988 13.5589 40.6468 14.4069 41.0408C16.9179 42.2118 19.4529 43.6318 22.0839 44.9498C24.0229 45.9498 25.9729 46.9648 27.9439 47.9328L27.9299 47.9678Z" fill="#231F20"/>
<path fill-rule="evenodd" clip-rule="evenodd" d="M50.9381 41.6893C50.8431 42.7063 50.7481 43.7253 50.6531 44.7403C50.6221 45.1113 50.6291 45.4833 50.5941 45.8543C50.4751 47.1613 50.3551 48.4743 50.2351 49.7783C50.1921 50.3583 50.1681 50.9433 50.1611 51.5203C50.1521 52.2603 50.1831 53.0073 50.0551 53.7383C49.9811 54.2003 49.0411 53.6103 49.0011 52.7423C48.9561 51.2173 48.9941 49.7023 49.2141 48.1793C49.3391 47.2693 49.3111 46.3153 49.3641 45.3813L49.5641 42.3013L49.6991 40.4063C49.7641 39.4503 49.8481 38.4903 49.8751 37.5383C49.8931 36.7983 49.8451 36.0703 49.8391 35.3363C49.8381 35.1743 49.8261 35.0153 49.8321 34.8523C49.8411 34.5513 49.8761 34.3463 49.9461 34.2103C49.9811 34.1423 50.0251 34.0893 50.0821 34.0473C50.1431 33.9463 50.2431 33.8623 50.3311 33.8603C50.4131 33.8513 50.4691 33.8743 50.4971 33.9253C50.5401 34.0153 50.4461 33.8043 50.4881 33.9003C50.5621 34.0663 50.5601 34.0553 50.5841 34.0903C50.6251 34.1493 50.7181 34.2003 50.8071 34.1623C50.8961 34.0703 50.9091 34.1633 50.9441 34.2523C50.9741 34.3373 50.9961 34.4343 51.0101 34.5433C51.1831 35.8463 51.1981 37.2293 51.1361 38.6073C51.0971 39.6323 51.0381 40.6623 50.9721 41.6893H50.9381Z" fill="#231F20"/>
<path fill-rule="evenodd" clip-rule="evenodd" d="M31.3653 35.3331C31.3293 36.2701 31.3083 37.2121 31.3013 38.1541C31.3093 38.4991 31.3183 38.8371 31.3263 39.1841C31.3083 40.3971 31.2893 41.6191 31.2713 42.8301C31.2663 43.3701 31.2853 43.9141 31.3083 44.4511C31.3273 45.1441 31.4073 45.8401 31.2213 46.5561C31.1663 46.7771 30.9263 46.7061 30.6973 46.5021C30.4733 46.2971 30.2523 45.9821 30.2413 45.5981C30.2193 44.2411 30.1553 42.8371 30.2353 41.4231C30.2883 40.5761 30.1993 39.6981 30.1853 38.8321C30.1723 37.8781 30.1763 36.9241 30.1833 35.9691C30.1933 35.3811 30.2033 34.7921 30.2133 34.2061C30.2423 33.3141 30.2713 32.4211 30.3013 31.5371C30.3143 30.8491 30.2653 30.1681 30.2993 29.4831C30.3023 29.3331 30.3033 29.1841 30.3203 29.0321C30.3833 28.4701 30.4803 28.2991 30.7623 28.2141C30.8263 28.1951 30.8913 28.1671 30.9533 28.1601C31.1633 28.1341 31.3133 28.3801 31.3493 28.7871C31.4743 29.9911 31.4653 31.2381 31.4443 32.5021C31.4273 33.4421 31.4113 34.3881 31.3953 35.3321L31.3653 35.3331Z" fill="#231F20"/>
<path fill-rule="evenodd" clip-rule="evenodd" d="M57.4597 2.50305C58.1577 2.27905 58.8587 2.12105 59.5617 1.97505C59.8177 1.92105 60.0607 1.82205 60.3197 1.78305C61.2317 1.63305 62.1607 1.56105 63.0747 1.44405C63.4827 1.40005 63.8827 1.31805 64.2827 1.26005C64.7977 1.19105 65.3177 1.12505 65.8527 1.14605C66.0187 1.15205 65.9897 1.12205 65.8637 1.18005C65.7347 1.22905 65.5307 1.44405 65.2667 1.60505C64.3417 2.21605 63.3827 2.66305 62.3437 2.86705C61.7187 2.97405 61.1157 3.25505 60.4937 3.42205C59.8117 3.60805 59.1157 3.75805 58.4297 3.92105C58.0067 4.02005 57.5847 4.11805 57.1807 4.23505C56.8687 4.33605 56.6117 4.39705 56.4697 4.53205C56.3037 4.67505 56.2007 4.94105 56.1467 5.23205C56.0707 5.69105 56.1227 6.18605 56.0817 6.69805C56.0737 6.81105 56.0657 6.92905 56.0587 7.03805C56.0127 7.46805 55.9087 7.60205 55.8957 7.68905C55.8897 7.70905 55.8857 7.73505 55.8847 7.74705C55.8857 7.78905 55.8927 7.61105 55.7737 7.31605C55.5307 6.42605 54.7767 5.62005 55.2027 4.13905C55.3047 3.87205 55.4697 3.57705 55.7217 3.35705C55.9517 3.13205 56.2207 3.01005 56.3827 2.92205C56.7577 2.72505 57.0957 2.59905 57.4457 2.46505L57.4597 2.50305Z" fill="#231F20"/>
<path fill-rule="evenodd" clip-rule="evenodd" d="M48.1496 15.708C48.1736 15.808 48.1376 15.729 48.1126 15.748C48.0826 15.743 48.0696 15.73 48.0256 15.726C47.9316 15.719 47.8546 15.697 47.7416 15.69C47.5276 15.67 47.2876 15.655 47.0416 15.642C46.8566 15.637 46.6876 15.699 46.4946 15.682C45.8226 15.625 45.0996 15.489 44.3876 15.437C44.0696 15.402 43.7606 15.426 43.4476 15.417C43.0466 15.396 42.6276 15.371 42.2136 15.188C42.0876 15.134 42.1086 15.188 42.2066 15.133C42.3076 15.094 42.4576 14.822 42.6436 14.647C43.2946 13.954 43.9836 13.507 44.8056 13.469C45.2976 13.468 45.7656 13.212 46.2746 13.146C46.8396 13.081 47.4116 13.076 48.0866 13.17C48.4676 13.208 49.1916 13.431 49.5216 13.866C50.0536 14.512 50.0526 15.14 50.1446 15.657C50.2016 16.067 50.2716 16.442 50.2196 16.832C50.2126 16.917 50.2096 16.999 50.1956 17.084C50.1516 17.401 50.0656 17.535 50.0776 17.604C50.0766 17.621 50.0816 17.641 50.0846 17.649C50.1096 17.67 50.0236 17.576 49.7936 17.391C49.5186 17.096 49.1976 16.777 48.8976 16.489C48.6456 16.192 48.3756 15.927 48.2036 15.749C48.1326 15.694 48.0676 15.631 48.0116 15.62C47.9826 15.612 47.9586 15.594 47.9466 15.603L47.9286 15.605C47.9176 15.613 47.9276 15.603 47.9616 15.574C47.9876 15.549 47.9956 15.549 48.0136 15.534C48.0706 15.493 48.1406 15.415 48.1756 15.37C48.1986 15.349 48.2206 15.32 48.2396 15.283C48.2336 15.292 48.2306 15.308 48.2306 15.308V15.309V15.31C48.2076 15.38 48.4336 14.696 48.3376 14.986L48.3366 14.988L48.3356 14.991L48.3326 14.998L48.3216 15.023L48.3026 15.075L48.2336 15.282C48.1936 15.422 48.1656 15.563 48.1496 15.705V15.708Z" fill="#231F20"/>
<path fill-rule="evenodd" clip-rule="evenodd" d="M17.2732 70.0695C20.2092 71.9205 23.1652 73.7545 26.1402 75.5555C27.2252 76.2145 28.3502 76.8045 29.4322 77.4665L40.8762 84.4945C42.5762 85.5225 44.3152 86.5025 46.0362 87.4635C48.2532 88.6855 50.4472 89.9725 52.5382 91.4205C53.1872 91.8755 52.9482 92.0775 52.2032 92.0355C51.4612 91.9875 50.1902 91.7425 48.8682 91.1175C46.5152 90.0315 44.2512 88.7875 41.9922 87.5205C39.7332 86.2555 37.4912 84.9475 35.2752 83.5695C32.6202 81.9315 29.7492 80.4145 26.9922 78.8075C23.9632 77.0375 20.9492 75.2365 17.9442 73.4165C16.0952 72.2945 14.2502 71.1675 12.4152 70.0115C11.7182 69.5815 11.0282 69.1235 10.3372 68.6715C9.99218 68.4515 9.64818 68.2085 9.30418 67.9645C9.10818 67.8205 8.82318 67.6455 8.61718 67.4645L8.44918 67.3285C8.42218 67.2635 8.40718 67.1895 8.38618 67.1205C8.34218 66.9815 8.30718 66.8405 8.28618 66.6975C8.15518 66.0615 8.14418 65.7285 8.09518 65.2945L7.99218 64.0605C7.93118 63.2425 7.87018 62.4265 7.81018 61.6135C7.62118 59.0895 7.31818 56.6245 7.18118 54.1245C7.14618 53.5745 7.09618 53.0355 7.07918 52.4795C7.04018 51.4485 7.12118 50.7645 7.25018 50.2835C7.42318 49.8035 7.62118 49.5245 7.85918 49.3045C7.96818 49.2035 8.06818 49.0715 8.16218 49.0135C8.32118 48.9165 8.46518 49.0775 8.65118 49.4455C8.83018 49.8145 9.09818 50.3905 9.19418 51.1325C9.53218 53.3375 9.80618 55.6065 10.0262 57.9075C10.2232 60.2015 10.3692 62.5575 10.5902 64.8355L10.6972 65.8085C10.7102 65.8355 10.6662 65.7975 10.7292 65.8465C11.3822 66.3165 12.1482 66.7785 12.8582 67.2475L17.3022 70.0125L17.2732 70.0695Z" fill="#231F20"/>
<path fill-rule="evenodd" clip-rule="evenodd" d="M53.3218 78.0954L53.2908 81.5804C53.2938 82.0044 53.3558 82.4254 53.3518 82.8494C53.3318 84.3474 53.3118 85.8524 53.2918 87.3484C53.2848 88.0144 53.3248 88.6824 53.3738 89.3424C53.4278 90.1954 53.5718 91.0334 53.3528 91.9374C53.2868 92.2164 52.8958 92.1394 52.5058 91.9044C52.1208 91.6704 51.7178 91.3054 51.6658 90.8284C51.5108 89.1524 51.3368 87.4314 51.4748 85.6844C51.5558 84.6374 51.3848 83.5634 51.3438 82.4984L51.2528 78.9794L51.2108 76.8114C51.1868 75.7164 51.2238 74.6134 51.1758 73.5244C51.1348 72.6784 50.9908 71.8474 50.9808 70.9924C50.9778 70.8034 50.9588 70.6184 50.9668 70.4274C51.0058 69.7154 51.1818 69.4754 51.6218 69.3864C51.7238 69.3644 51.8258 69.3324 51.9248 69.3264C52.2588 69.3084 52.5178 69.6174 52.6138 70.0854C52.7658 70.7994 52.9408 71.5404 53.0438 72.2974C53.1338 73.0534 53.1928 73.8244 53.2498 74.6024L53.3528 76.3404L53.3738 78.0914L53.3218 78.0954Z" fill="#231F20"/>
<path fill-rule="evenodd" clip-rule="evenodd" d="M116.01 78.2524L101.044 82.0004C99.2226 82.4514 97.4206 82.9734 95.5966 83.4024L76.2816 87.8994C73.4296 88.5874 70.5636 89.2784 67.7336 89.9604C64.0866 90.8064 60.4686 91.8164 56.6836 92.1734C55.4736 92.2354 55.6296 91.8764 56.5306 91.3384C57.4276 90.7664 59.0896 89.9734 61.1706 89.4654C68.5376 87.6104 75.9416 85.7974 83.4486 84.1374C87.9416 83.1484 92.5436 81.8254 97.0986 80.6514L112.136 76.8104C115.217 76.0084 118.301 75.2084 121.36 74.3574L123.207 73.8324L123.733 73.6774C123.794 73.6394 123.948 73.6514 123.921 73.5464L123.926 73.2904C123.933 69.8354 123.94 66.3874 123.947 62.9684C123.932 59.2424 123.8 55.5854 123.829 51.8864C123.835 51.0714 123.83 50.2714 123.855 49.4494C124.007 46.3984 124.324 45.4174 125.02 44.8414C125.18 44.7104 125.344 44.5334 125.496 44.4664C126.021 44.2514 126.249 45.4934 126.267 47.6814C126.361 54.2004 126.383 61.1144 126.376 68.0654C126.371 70.0924 126.365 72.1234 126.361 74.1614L126.191 74.6664L126.106 74.9184L126.063 75.0434L126.042 75.1064C126.225 75.2374 125.792 74.9324 125.836 74.9644L125.834 74.9684L125.829 74.9744L125.821 74.9874L125.803 75.0134L125.529 75.4264C125.456 75.5844 125.233 75.6474 125.092 75.7614C124.756 75.9324 124.291 76.0404 123.956 76.1494L123.342 76.3274L120.902 77.0034L116.032 78.3084L116.01 78.2524Z" fill="#231F20"/>
<path fill-rule="evenodd" clip-rule="evenodd" d="M96.0935 49.8048L84.8195 52.2468L80.7245 53.2128L66.2445 56.4298C64.1055 56.9138 61.9645 57.4418 59.8575 57.9838C57.1375 58.6268 54.4275 59.3728 51.6715 59.8308C50.8185 59.9928 50.8925 59.8728 51.5485 59.4858C51.8755 59.2898 52.3515 59.0228 52.9265 58.7268C53.4985 58.4148 54.1875 58.0998 54.9605 57.8688L59.0615 56.5948C60.4335 56.1898 61.8185 55.8318 63.2015 55.4668C65.9685 54.7288 68.7595 54.0678 71.5825 53.4858C74.9555 52.7788 78.4135 51.8238 81.8395 51.0008L93.1615 48.3548C95.4865 47.8208 97.8125 47.2868 100.135 46.7528C103.653 45.9398 107.198 45.1628 110.682 44.3118C113.392 43.6588 116.02 42.8938 118.694 42.2058C119.282 42.0528 119.854 41.8828 120.449 41.7398C121.562 41.5018 122.311 41.4188 122.858 41.4648C123.401 41.4948 123.733 41.6078 124.021 41.8008C124.152 41.8888 124.317 41.9648 124.401 42.0548C124.681 42.3438 123.846 42.8768 122.289 43.5058C117.592 45.0048 112.549 46.1898 107.468 47.3368C103.691 48.1738 99.8975 49.0148 96.1105 49.8548L96.0935 49.8048Z" fill="#231F20"/>
<path fill-rule="evenodd" clip-rule="evenodd" d="M25.2761 47.4789C27.3011 48.5039 29.3371 49.5169 31.3881 50.4989L33.6541 51.5259C36.2971 52.7899 38.9411 54.0549 41.5821 55.3179C42.7551 55.8769 43.9501 56.4129 45.1301 56.9369C46.6421 57.6279 48.1961 58.2409 49.5761 59.2769C50.0081 59.5909 49.8051 59.7459 49.2931 59.7559C49.0361 59.7609 48.7041 59.7319 48.3351 59.6649C47.9501 59.5999 47.5051 59.5239 47.0851 59.3199C44.0371 57.9569 40.8771 56.7289 37.8411 55.1689C36.0171 54.2529 34.0351 53.4859 32.1301 52.6279C30.0371 51.6859 27.9521 50.7169 25.8771 49.7259L22.0551 47.8769C20.1291 46.9359 18.2221 45.9309 16.3221 44.9609C14.8531 44.1899 13.3531 43.5429 11.9021 42.7289C11.5811 42.5539 11.2551 42.4009 10.9451 42.2029C9.81108 41.4099 9.55108 41.0139 9.59608 40.4759C9.60708 40.3529 9.59908 40.2209 9.63008 40.1179C9.72908 39.7819 10.3791 39.8259 11.2411 40.2489C13.8181 41.4859 16.4511 42.9559 19.1841 44.3379C21.2081 45.3699 23.2361 46.4309 25.2931 47.4369L25.2761 47.4789Z" fill="#231F20"/>
<path fill-rule="evenodd" clip-rule="evenodd" d="M111.598 32.3865C111.598 33.4175 111.599 34.4505 111.624 35.4855C111.633 35.8625 111.705 36.2335 111.708 36.6115C111.713 37.9455 111.728 39.2815 111.709 40.6205C111.71 41.2145 111.762 41.8065 111.822 42.3915C111.907 43.1415 111.95 43.9025 111.792 44.6685C111.74 44.9075 111.43 44.8925 111.081 44.7155C110.738 44.5365 110.318 44.2015 110.206 43.7815C109.986 43.0355 109.906 42.2815 109.844 41.5195C109.786 40.7575 109.736 39.9925 109.801 39.2105C109.869 38.2765 109.676 37.3275 109.616 36.3825L109.464 33.2535L109.394 31.3235C109.357 30.3485 109.361 29.3655 109.278 28.4005C109.223 27.6485 109.029 26.9175 108.941 26.1685C108.932 26.0035 108.902 25.8435 108.91 25.6755C108.916 25.5205 108.93 25.3915 108.955 25.2835C108.991 25.1755 109.067 25.0885 109.127 25.0165C109.257 24.8725 109.407 24.7905 109.603 24.7235C109.692 24.6945 109.776 24.6545 109.856 24.6375C110.107 24.5785 110.401 24.8275 110.71 25.2615C110.832 25.5855 110.956 25.9105 111.068 26.2405C111.142 26.5715 111.195 26.9035 111.249 27.2405C111.349 27.9135 111.413 28.5985 111.469 29.2875C111.547 30.3115 111.611 31.3445 111.653 32.3805L111.598 32.3865Z" fill="#231F20"/>
<path fill-rule="evenodd" clip-rule="evenodd" d="M78.2557 30.0916C74.2587 30.7856 70.2607 31.4756 66.2797 32.2236L61.9427 33.1166C59.3987 33.6286 56.8347 34.1186 54.3577 34.7646L53.4267 35.0036L52.6377 35.2586L52.4457 35.3176L52.3487 35.3456C52.3407 35.3746 52.3377 35.4086 52.3327 35.4396L52.3137 35.6356L52.2887 35.9906L52.0867 39.8896C51.9817 42.2006 51.9177 44.5276 51.8787 46.8226C51.8307 49.7716 51.8527 52.7376 51.6097 55.6746C51.4807 57.5086 49.9177 55.1666 49.8917 51.7526C49.8897 48.7346 49.9197 45.7206 49.9997 42.7006C50.0337 41.1906 50.1077 39.6796 50.1917 38.1656L50.3337 35.8866L50.3557 35.5606C50.3447 35.3796 50.4317 35.2486 50.4687 35.0936C50.5727 34.8076 50.6397 34.4636 50.7857 34.2586L50.8097 34.2146L50.8157 34.2036L50.8187 34.1976C50.8457 34.2156 50.5967 34.0256 50.7047 34.1036L50.7257 34.0866L50.8117 34.0176L50.9827 33.8816C51.0937 33.7886 51.2007 33.6926 51.3787 33.6536L52.2137 33.3736C54.0537 32.8276 55.8507 32.4156 57.6807 31.9646C59.5057 31.5386 61.3377 31.0986 63.1627 30.7306C67.1757 29.9016 71.1987 29.1536 75.2197 28.4036C77.6937 27.9466 80.1707 27.4906 82.6437 27.0346C86.3867 26.3356 90.1557 25.6686 93.8507 24.8786C96.7237 24.2656 99.5087 23.5306 102.315 22.8186C102.929 22.6536 103.531 22.4906 104.15 22.3236C106.462 21.7606 107.185 21.6496 107.84 22.0446C107.987 22.1316 108.171 22.2066 108.272 22.3056C108.616 22.6376 107.77 23.2376 106.084 23.8386C101.097 25.5146 95.7347 26.7206 90.3377 27.8156C86.3287 28.6316 82.2967 29.3926 78.2717 30.1456L78.2557 30.0916Z" fill="#231F20"/>
<path fill-rule="evenodd" clip-rule="evenodd" d="M59.6406 15.0244L69.9176 13.3344C71.1696 13.1294 72.4106 12.8654 73.6646 12.6794C75.8786 12.3514 78.0976 12.0444 80.3376 11.8024C81.4636 11.6954 82.5826 11.5904 83.7416 11.5654L84.6226 11.5664L85.1776 11.6044C85.3986 11.6204 85.5946 11.6714 85.8036 11.7134C86.3296 11.6654 86.3476 12.2174 86.5126 12.5884C86.5756 12.7774 86.6756 13.0044 86.7076 13.1604L86.8076 13.5894C87.2616 15.6214 87.3506 17.6614 87.3426 19.6414C87.3416 22.1884 87.2216 24.7004 87.2076 27.1824C87.2056 27.9544 86.9126 27.8904 86.5526 27.2464C86.1896 26.6044 85.7776 25.3554 85.7186 23.8844C85.6316 21.2834 85.6116 18.7254 85.3816 16.2924C85.3176 15.6844 85.2256 15.0894 85.1086 14.5064C85.0506 14.2174 84.9676 13.9314 84.9036 13.6534C84.8916 13.5844 84.9016 13.5694 84.8886 13.5214C84.8726 13.5134 84.8566 13.5014 84.8376 13.4964C84.8256 13.4944 84.8196 13.4914 84.8146 13.4864L84.8066 13.4804L84.7096 13.4724C84.4246 13.4674 84.1256 13.4644 83.8226 13.4724C83.2076 13.4914 82.5776 13.5334 81.9446 13.5784C78.8976 13.8124 75.7286 14.4684 72.6126 15.0134L62.3086 16.8574L55.9636 18.0134C52.7606 18.6004 49.5336 19.1504 46.3566 19.7634C43.8846 20.2324 41.4866 20.8434 39.0286 21.2934C38.4886 21.3964 37.9616 21.5124 37.4116 21.5934C36.3936 21.7514 35.7096 21.7954 35.2226 21.7414C34.7306 21.6624 34.4366 21.5044 34.1876 21.2504C34.0746 21.1344 33.9306 21.0244 33.8606 20.9094C33.6296 20.5384 34.4056 20.0344 35.8496 19.6804C40.1346 18.6194 44.7046 17.7304 49.3126 16.8614C52.7356 16.2204 56.1776 15.5744 59.6246 14.9684L59.6406 15.0244Z" fill="#231F20"/>
<path fill-rule="evenodd" clip-rule="evenodd" d="M32.7256 34.5836L32.6236 37.9116C32.6156 38.3176 32.6596 38.7206 32.6456 39.1256C32.5876 40.5566 32.5286 41.9946 32.4706 43.4226C32.4486 44.0576 32.4606 44.6986 32.4826 45.3316C32.4976 46.1486 32.6026 46.9646 32.3456 47.8126C32.2686 48.0756 31.9066 47.9776 31.5596 47.7296C31.2166 47.4796 30.8796 47.1126 30.8666 46.6596C30.8386 45.0676 30.7996 43.4196 30.9566 41.7606C31.0616 40.7656 30.9466 39.7346 30.9426 38.7176L30.9606 35.3576L30.9806 33.2876C30.9866 32.2416 31.0346 31.1906 31.0126 30.1506C31.0056 29.3416 30.8686 28.5476 30.8766 27.7366C30.8746 27.5586 30.8576 27.3836 30.8656 27.2036C30.9136 26.5306 31.0506 26.3236 31.4656 26.2226C31.5596 26.1986 31.6546 26.1656 31.7466 26.1566C32.0596 26.1256 32.3016 26.4146 32.3876 26.8836C32.5046 27.5826 32.6516 28.2986 32.6916 29.0276C32.7336 29.7536 32.7616 30.4986 32.7706 31.2416C32.8036 32.3486 32.7796 33.4646 32.7696 34.5816L32.7256 34.5836Z" fill="#231F20"/>
<path fill-rule="evenodd" clip-rule="evenodd" d="M24.5812 26.4908L24.4572 30.9648C24.4472 31.5088 24.4942 32.0518 24.4782 32.5958C24.4082 34.5158 24.3382 36.4408 24.2682 38.3588C24.2422 39.2108 24.2572 40.0698 24.2852 40.9168C24.3072 42.0128 24.4332 43.0908 24.1482 44.2368C24.0602 44.5938 23.6532 44.4708 23.2642 44.1498C22.8832 43.8358 22.4922 43.3408 22.4762 42.7238C22.4312 40.5568 22.3872 38.3388 22.5692 36.1088C22.6892 34.7718 22.5642 33.3858 22.5632 32.0188L22.5932 27.5088L22.6182 24.7308C22.6232 23.3288 22.6742 21.9198 22.6452 20.5258C22.6252 19.4418 22.4762 18.3788 22.4692 17.2958C22.4662 17.0568 22.4472 16.8228 22.4552 16.5818C22.4932 15.6848 22.6652 15.3908 23.1282 15.2468C23.2352 15.2138 23.3422 15.1668 23.4462 15.1528C23.7972 15.1058 24.0682 15.4868 24.1612 16.1088C24.2992 17.0458 24.4752 18.0128 24.5232 18.9978C24.5812 19.9808 24.6092 20.9828 24.6292 21.9888C24.6672 23.4808 24.6432 24.9848 24.6312 26.4878L24.5812 26.4908Z" fill="#231F20"/>
<path fill-rule="evenodd" clip-rule="evenodd" d="M51.8533 8.69907L45.0603 9.83307L42.5953 10.3201C39.6843 10.8231 36.7703 11.3271 33.8613 11.8301C32.5713 12.0621 31.2833 12.3441 30.0143 12.6281C28.3833 12.9951 26.7593 13.4251 25.0903 13.6081C24.0523 13.7291 25.0673 12.1501 26.9363 11.6851C30.2553 10.8921 33.5883 10.1701 36.9943 9.64007C39.0333 9.33607 41.1123 8.81107 43.1793 8.40507L50.0113 7.12607L54.2233 6.37207C56.3473 5.98507 58.4913 5.64407 60.5943 5.22807C62.2313 4.91207 63.8153 4.48407 65.4273 4.12007C65.7823 4.03907 66.1253 3.94107 66.4863 3.87307C67.8213 3.62107 68.2703 3.69007 68.6433 4.19407C68.7283 4.30807 68.8333 4.41907 68.8913 4.53907C69.0853 4.94407 68.5953 5.38207 67.6383 5.65807C64.8013 6.48807 61.7613 7.02407 58.7043 7.56907C56.4303 7.96007 54.1453 8.35307 51.8653 8.74507L51.8533 8.69907Z" fill="#231F20"/>
<path fill-rule="evenodd" clip-rule="evenodd" d="M57.4388 1.36806C58.3048 1.23406 59.1718 1.09906 60.0348 0.966061C60.3488 0.918061 60.6528 0.829061 60.9678 0.789061C62.0748 0.661061 63.1908 0.533061 64.2958 0.405061C64.7868 0.347061 65.2728 0.248061 65.7598 0.177061C66.3848 0.0770612 67.0008 -0.0629388 67.6808 0.0310612C67.9038 0.0670612 67.8548 0.310061 67.7088 0.567061C67.5618 0.823061 67.3148 1.12206 66.9738 1.21006C65.7658 1.53506 64.5178 1.75806 63.2308 1.84006C62.4598 1.89306 61.6948 2.13206 60.9278 2.28806C60.0858 2.46006 59.2418 2.63306 58.3988 2.80506C57.8828 2.91806 57.3688 3.03506 56.8688 3.17706L56.1628 3.38606C56.0808 3.41406 55.9948 3.44206 55.9218 3.49306C55.8378 3.54506 55.8818 3.65206 55.8648 3.73406L55.8608 3.89506L55.8638 4.17106C55.8758 4.79706 55.9988 5.41206 56.1018 6.00906C56.1258 6.13906 56.1698 6.26706 56.1698 6.39306C56.1708 6.63106 56.1618 6.76706 56.0508 6.87506C55.9038 6.97506 55.7368 7.05506 55.5328 7.13706C55.4388 7.17706 55.3558 7.23006 55.2748 7.26806C55.1368 7.33206 54.9998 7.33506 54.8118 7.23606C54.6338 7.14506 54.3828 6.98506 54.3368 6.77306C54.0968 6.21506 54.0668 5.67906 54.0438 5.14206C54.0368 4.87406 54.0418 4.60706 54.0518 4.34306L54.0728 3.94906L54.0878 3.65506C54.0938 3.52206 54.1028 3.39006 54.1198 3.26206C54.1288 3.07006 54.1838 2.90806 54.2418 2.74806C54.4518 2.64606 54.3788 2.37306 54.5848 2.28106C54.7248 2.14506 54.9198 2.04706 55.1058 1.95306C55.3088 1.87906 55.5078 1.79106 55.7158 1.73406L56.0988 1.62706C56.5518 1.51106 56.9908 1.41906 57.4278 1.32906L57.4388 1.36806Z" fill="#231F20"/>
<path fill-rule="evenodd" clip-rule="evenodd" d="M49.2233 14.283C48.3713 14.348 47.4963 14.454 46.6273 14.58C46.3093 14.627 46.0013 14.719 45.6833 14.764C44.5603 14.924 43.4313 15.082 42.3123 15.279C41.8153 15.366 41.3263 15.499 40.8373 15.609C40.2113 15.761 39.5953 15.951 38.9233 15.954C38.7083 15.953 38.6983 15.709 38.8103 15.429C38.9233 15.152 39.1583 14.816 39.5063 14.693C40.7363 14.238 42.0153 13.932 43.3433 13.786C44.1373 13.696 44.9223 13.431 45.7183 13.263C46.5943 13.081 47.4753 12.919 48.3693 12.778L49.2003 12.659C49.4183 12.635 49.9403 12.553 50.3003 12.564C50.5623 12.564 50.8023 12.6 50.9833 12.738C51.2033 12.854 51.2073 13.118 51.2913 13.353C51.4213 14.103 51.4883 14.452 51.5933 14.926C51.7363 15.554 51.9853 16.152 52.1853 16.778C52.2293 16.916 52.2933 17.05 52.3083 17.196C52.3413 17.467 52.3393 17.658 52.2313 17.803C52.0813 17.955 51.9133 18.042 51.6913 18.108C51.5913 18.136 51.4973 18.165 51.4113 18.172C51.2633 18.184 51.1293 18.127 50.9663 18.068C50.8063 18.001 50.5673 17.895 50.5143 17.728C49.9873 16.731 49.8693 15.546 49.6993 14.374C49.6783 14.285 49.7053 14.344 49.6893 14.33C49.7073 14.319 49.7073 14.308 49.7033 14.297C49.7013 14.291 49.6953 14.287 49.6883 14.281L49.2313 14.323L49.2233 14.283Z" fill="#231F20"/>
<path fill-rule="evenodd" clip-rule="evenodd" d="M96.5983 73.5621C94.6453 73.9991 92.6893 74.3881 90.7333 74.7661C90.0193 74.9031 89.3193 75.1011 88.6023 75.2231C87.3393 75.4391 86.0713 75.6351 84.7973 75.8101C84.1603 75.8961 83.5223 75.9831 82.8773 76.0501L81.9023 76.1321L81.4043 76.1621C81.2623 76.1591 80.9433 76.1911 80.7293 76.1751C80.5173 76.1711 80.3163 76.1441 80.1263 76.0831C80.0793 76.0691 80.0273 76.0541 79.9843 76.0321L79.8873 75.9161L79.6933 75.6841C79.4563 75.3691 79.2583 74.9341 79.1543 74.5721C78.9633 73.9411 78.9003 73.3181 78.8773 72.7221C78.8553 71.9571 78.8693 71.2151 78.9393 70.4991C79.0153 69.7841 79.1283 69.0941 79.1913 68.4191C79.2313 68.0051 79.5393 67.9941 79.9173 68.3581C80.2903 68.7171 80.7153 69.4971 80.7623 70.3481C80.8203 71.1001 80.7483 71.8121 80.7943 72.4691C80.8133 72.7941 80.8343 73.1141 80.8883 73.3961C80.9073 73.5451 80.9443 73.6751 80.9763 73.8061C80.9893 73.8741 81.0113 73.9331 81.0343 73.9901C81.0623 74.0531 81.0273 74.0171 81.0383 74.0331C81.0363 74.0471 81.0253 74.0921 81.0473 74.1121C81.0573 74.1221 81.0703 74.1311 81.0873 74.1401C81.0663 74.1491 81.1623 74.1411 81.2503 74.1341L81.5053 74.1111C82.1973 74.0421 82.9213 73.9591 83.6523 73.9101C85.4023 73.7681 87.1803 73.2911 88.9443 72.9361C90.8863 72.5421 92.8293 72.1391 94.7603 71.6911C95.9493 71.4151 97.1363 71.1331 98.3073 70.8071C100.07 70.3041 101.885 69.8131 103.466 69.0471C103.616 68.9721 103.763 68.8931 103.897 68.8091C104.011 68.7401 104.068 68.6931 104.145 68.6271C104.214 68.5631 104.281 68.4981 104.318 68.4141C104.358 68.3281 104.325 68.2261 104.32 68.1381L104.301 68.0071L104.282 67.7611L104.233 67.2501L104.105 66.2421C104.061 65.9501 103.992 65.6681 103.944 65.3871C103.793 64.3331 103.936 64.1101 104.41 63.6561C104.512 63.5461 104.616 63.4351 104.715 63.3281C105.033 62.9481 105.773 63.3621 106.167 64.3131C106.465 65.0011 106.556 65.6981 106.658 66.3871C106.702 66.7331 106.731 67.0791 106.752 67.4281L106.773 67.9511L106.776 68.0941C106.767 68.1721 106.77 68.2521 106.767 68.3321C106.758 68.4891 106.771 68.6551 106.744 68.8071C106.696 69.4271 106.355 70.0001 105.836 70.3821C105.596 70.5751 105.281 70.7771 105.044 70.9031C104.863 71.0051 104.691 71.0901 104.517 71.1751C103.832 71.4991 103.171 71.7471 102.508 71.9771C100.545 72.6521 98.5743 73.1161 96.6163 73.6161L96.5983 73.5621Z" fill="#231F20"/>
<path fill-rule="evenodd" clip-rule="evenodd" d="M8.62929 62.4241C8.62929 62.4241 3.52529 60.9241 0.411289 63.3601C-2.35271 65.5231 8.88829 76.7581 31.9073 80.7031L9.11829 66.8731L8.62929 62.4241Z" fill="#231F20"/>
<path fill-rule="evenodd" clip-rule="evenodd" d="M93.3429 48.7779L83.2729 51.0659L79.6159 51.9669L66.6869 54.9939C64.7759 55.4449 62.8649 55.9439 60.9829 56.4459C58.5549 57.0519 56.1359 57.7409 53.6719 58.1859C52.9099 58.3398 52.9789 58.2339 53.5649 57.8909C53.8589 57.7148 54.2819 57.4799 54.7959 57.2139C55.3069 56.9328 55.9219 56.6529 56.6119 56.4389C59.0459 55.6299 61.4909 54.8738 63.9689 54.2208C66.4399 53.5379 68.9309 52.9139 71.4519 52.3659C74.4649 51.6959 77.5519 50.8139 80.6139 50.0489L90.7259 47.5809L96.9559 46.0909C100.099 45.3319 103.267 44.6099 106.38 43.8249C108.8 43.2149 111.152 42.5269 113.536 41.8839C114.061 41.7409 114.572 41.5869 115.105 41.4579C116.096 41.2319 116.763 41.1449 117.251 41.1739C117.737 41.1879 118.033 41.2779 118.292 41.4379C118.41 41.5109 118.558 41.5729 118.634 41.6479C118.886 41.8899 118.144 42.3649 116.753 42.9379C112.552 44.3089 108.045 45.4079 103.506 46.4739C100.131 47.2549 96.7409 48.0379 93.3579 48.8199L93.3429 48.7779Z" fill="#231F20"/>
<path fill-rule="evenodd" clip-rule="evenodd" d="M70.9013 19.7235C71.4413 19.6565 71.9833 19.5895 72.5203 19.5235C72.7163 19.4965 72.9073 19.4415 73.1043 19.4185C73.7973 19.3405 74.5023 19.2615 75.1893 19.1835C75.4973 19.1505 75.8023 19.0895 76.1023 19.0255C76.4873 18.9415 76.8673 18.8245 77.2723 18.8445C77.5243 18.8515 77.3613 19.6405 76.9253 19.7755C76.1473 19.9835 75.3663 20.1785 74.5433 20.1945C74.0523 20.2125 73.5673 20.3585 73.0773 20.4405C72.5413 20.5245 71.9993 20.6105 71.4603 20.6955C71.1273 20.7485 70.7923 20.8025 70.4623 20.8545C69.9023 20.9465 69.4333 20.9315 68.9263 21.0295C68.5413 21.0945 68.1723 21.2235 67.7963 21.3275C67.7133 21.3505 67.6333 21.3835 67.5493 21.4005C67.2373 21.4655 67.1263 21.4085 67.0153 21.1295C66.9903 21.0665 66.9603 21.0045 66.9413 20.9395C66.8773 20.7225 66.9783 20.5185 67.2013 20.4195C67.8603 20.1225 68.5813 19.9885 69.3223 19.8915C69.5873 19.8515 69.9173 19.8395 70.1023 19.8185L70.8953 19.6975L70.9013 19.7235Z" fill="#231F20"/>
<path fill-rule="evenodd" clip-rule="evenodd" d="M67.4959 25.6384C68.4619 25.4894 69.4289 25.3404 70.3919 25.1924C70.7449 25.1244 71.0889 25.0584 71.4419 24.9914C72.6809 24.7894 73.9279 24.5864 75.1629 24.3854C75.7139 24.2944 76.2609 24.1734 76.7999 24.0494C77.4919 23.8884 78.1799 23.6934 78.8939 23.6334C79.3379 23.5904 78.9529 24.4384 78.1629 24.6644C76.7559 25.0334 75.3439 25.3834 73.8799 25.5454C73.0059 25.6524 72.1229 25.8854 71.2409 26.0494L68.3259 26.5594L66.5309 26.8644C65.6259 27.0224 64.7119 27.1604 63.8179 27.3384C63.1229 27.4784 62.4529 27.6754 61.7709 27.8464C61.6219 27.8844 61.4709 27.9234 61.3229 27.9614C60.7579 28.0794 60.5639 28.0394 60.3919 27.7744C60.3529 27.7134 60.3059 27.6554 60.2779 27.5924C60.1849 27.3804 60.3849 27.1564 60.7879 27.0174C61.9859 26.6104 63.2759 26.3464 64.5769 26.1044C65.5449 25.9414 66.5179 25.7764 67.4899 25.6124L67.4959 25.6384Z" fill="#231F20"/>
</svg>
